<svg xmlns="http://www.w3.org/2000/svg" viewBox="0 0 425.11 147.28"><defs><style>.cls-1{fill:#fff;}</style></defs><title>DFA Value Integrity</title><g id="Layer_2" data-name="Layer 2"><g id="Layer_1-2" data-name="Layer 1"><path class="cls-1" d="M64.7,14c-3.78,7.23-8.24,15.4-8.24,15.4A27,27,0,0,0,53.05,40c-2.79.13-16.59.88-24.4,3-8.71,2.4-13.57,3.19-21.94,8.3a26.71,26.71,0,0,0-6,5C-1.78,31.94,2.88,13.65,2.88,13.65S25.55-.06,57.3,0c3.39,0,6.7.17,9.9.44A24.8,24.8,0,0,1,64.7,14Z"/><path class="cls-1" d="M58.27,147.28s0,0,0,0a0,0,0,0,0,0,0Z"/><path class="cls-1" d="M116.41,49a24.71,24.71,0,0,0-3-1.75c-6-3.07-14.73-4.87-16.75-5.29.11-14.07-11.34-29.1-11.34-29.1A103.07,103.07,0,0,0,75.67,1.5a127.87,127.87,0,0,1,38.06,12.15S117.5,28.38,116.41,49Z"/><path class="cls-1" d="M110.76,63.76a69.94,69.94,0,0,1-8.09,2.46,75.22,75.22,0,0,1-9.4,1.67s0,0,0,0-9.86,1.22-11.13,1c0,0-2.36-.08.72-.82,0,0,11.46-2.21,17.4-5.2C111.88,57,106.59,51,106.59,51c-2.78-3.69-7.88-5.8-10.06-6.58a20.3,20.3,0,0,1-1.62,6.07,28.9,28.9,0,0,1-2.1,3.82,22.78,22.78,0,0,1-5.25,5.66A21.2,21.2,0,0,1,82,62.86a22.49,22.49,0,0,1-8.85,1.19s-12.39-.71-18.06-12.22A21.47,21.47,0,0,1,52.94,42c-19.09,1.52-28.3,10.29-28.3,10.29C9.2,66.56,37.73,76.23,59,77.67c16.91,1.14,28.59-.15,54.36-6.07.76-3.33,1.35-6.6,1.81-9.8A37.7,37.7,0,0,1,110.76,63.76ZM65.81,69.11l-1.11,0q-3.31-.12-6.6-.5c-1.9-.22-3.81-.51-5.67-.87-1.58-.3-3.14-.65-4.7-1-1.2-.32-2.4-.68-3.6-1.06-.82-.27-1.64-.57-2.46-.88a24.48,24.48,0,0,1-2.93-1.37,10.14,10.14,0,0,1-4-3.39,4.1,4.1,0,0,1,.65-4.83c2.36-2.84,6-4.23,9.35-5.35a23.52,23.52,0,0,1,3.44-.91c.38-.06,1.33-.12.61.53A11.16,11.16,0,0,0,45,53.48a5,5,0,0,0-.31,3.62,7.71,7.71,0,0,0,1.77,2.95,15.82,15.82,0,0,0,2.44,2.09c.3.21.63.42,1,.61a2.32,2.32,0,0,0,.38.21,31.22,31.22,0,0,0,2.87,1.33c1,.4,1.89.78,2.86,1.14,1.45.56,2.93,1,4.43,1.47,1,.3,2.08.55,3.12.76.75.13,1.51.27,2.25.44a8.34,8.34,0,0,1,1.09.29C69.44,69.2,65.81,69.11,65.81,69.11Z"/><path class="cls-1" d="M108.52,87.8c-7.88,21-22.82,42.59-50.21,59.46-29-17.82-44-41.06-51.52-63.12,7.88,4.12,17.05,5.83,25.65,7.39a148.64,148.64,0,0,0,25.24,2.38,222.64,222.64,0,0,0,26.55-1.28,140.18,140.18,0,0,0,16.44-2.72c1.32-.3,2.59-.67,3.89-1Z"/><path class="cls-1" d="M171.45,72.42h-8L149.18,27.58h8.54l9.65,35.93h.12l9.72-35.93h8.47Z"/><path class="cls-1" d="M190.42,72.42h-7.86l14-44.84h8.66l14,44.84h-7.91L208.48,62H193.26Zm4.45-16.2h12l-6-21.65h-.12Z"/><path class="cls-1" d="M232,27.58v38.1h16.58v6.74H224.52V27.58Z"/><path class="cls-1" d="M284.37,27.58V57.76q0,7.18-4,11.23T268.84,73q-7.48,0-11.53-4t-4.05-11V27.58H261V58.13a10.49,10.49,0,0,0,.59,3.78,6.12,6.12,0,0,0,1.67,2.5,6.48,6.48,0,0,0,2.5,1.39,10.54,10.54,0,0,0,3.09.44,8.06,8.06,0,0,0,5.79-1.92q2-1.92,2-6.19V27.58Z"/><path class="cls-1" d="M317.24,27.58V34.2H299.42V46.44h13.8v5.88h-13.8V65.87H318v6.55H291.69V27.58Z"/><path class="cls-1" d="M161.74,84.68v44.84H154V84.68Z"/><path class="cls-1" d="M175.76,84.68l17,29h.12v-29h6.87v44.84h-5.44L176.81,99.58h-.12v29.94h-6.81V84.68Z"/><path class="cls-1" d="M234,84.68v6.68H223.44v38.16H215.7V91.36H205.13V84.68Z"/><path class="cls-1" d="M265,84.68V91.3H247.15v12.24h13.79v5.88H247.15V123H265.7v6.56H239.42V84.68Z"/><path class="cls-1" d="M286.25,84.06a15.83,15.83,0,0,1,9.37,2.72,13,13,0,0,1,5.16,7.3l-5.63,2a9.15,9.15,0,0,0-3.31-4.33,8.72,8.72,0,0,0-4.91-1.36q-4.65,0-6.78,2.6c-1.42,1.73-2.13,4.28-2.13,7.67v13.73q0,4.69,2.2,7a8.38,8.38,0,0,0,6.34,2.29,9.51,9.51,0,0,0,4.32-.9,8.53,8.53,0,0,0,3.22-3.06V112h-5.75v-5.14H300.9v22.64h-6.3v-3.34a13.74,13.74,0,0,1-10,3.9q-6.63,0-10.49-3.93t-3.86-11.6V100.63a21.92,21.92,0,0,1,1-6.77,14.38,14.38,0,0,1,3-5.26,13,13,0,0,1,5-3.37A19.23,19.23,0,0,1,286.25,84.06Z"/><path class="cls-1" d="M321,111.09h-5.38v18.43h-7.73V84.68h14.29q7.11,0,10.39,3.4t3.28,9.4a14.81,14.81,0,0,1-1.95,7.92,9.45,9.45,0,0,1-5.79,4.2l10.33,19.92h-8.47Zm-5.38-5.88h6.31q3.64,0,4.95-1.91a9.61,9.61,0,0,0,1.3-5.39c0-2.43-.45-4.19-1.33-5.29S324.3,91,322,91h-6.37Z"/><path class="cls-1" d="M351.93,84.68v44.84h-7.74V84.68Z"/><path class="cls-1" d="M386.6,84.68v6.68H376v38.16h-7.73V91.36H357.71V84.68Z"/><path class="cls-1" d="M411.44,115.05v14.47h-7.73V115.11L390,84.68h8.66L407.55,108h.12l8.91-23.32h8.53Z"/></g></g></svg>